<?xml version="1.0"?>
<svg xmlns="http://www.w3.org/2000/svg" height="512px" viewBox="0 -27 373.76101 373" width="512px" class=""><g><path d="m186.878906 7.203125-180.050781 161.195313h60.585937v143.359374h238.933594v-143.359374h60.585938zm0 0" fill="#fff" data-original="#FFF" class=""/><path d="m306.347656 318.585938h-238.933594c-3.773437 0-6.828124-3.058594-6.828124-6.828126v-136.53125h-53.757813c-2.828125 0-5.367187-1.746093-6.378906-4.390624-1.007813-2.644532-.28125-5.636719 1.824219-7.523438l180.054687-161.191406c2.585937-2.320313 6.519531-2.320313 9.105469 0l180.054687 161.191406c2.105469 1.886719 2.832031 4.878906 1.824219 7.523438-1.011719 2.644531-3.550781 4.390624-6.378906 4.390624h-53.757813v136.53125c0 3.769532-3.054687 6.828126-6.828125 6.828126zm-232.105468-13.652344h225.277343v-136.535156c0-3.769532 3.054688-6.828126 6.828125-6.828126h42.726563l-162.195313-145.203124-162.191406 145.203124h42.726562c3.773438 0 6.828126 3.058594 6.828126 6.828126zm0 0" data-original="#000000" class="" style="fill:#E0F107" data-old_color="#000000"/><path d="m139.792969 165.074219c-14.03125-16.980469-4.332031-43.871094 17.582031-46.09375 1.089844-.113281 2.195312-.167969 3.308594-.167969 11.265625 0 21.175781 5.757812 26.976562 14.492188 5.796875-8.730469 15.710938-14.492188 26.976563-14.492188 1.117187 0 2.222656.054688 3.308593.167969 21.910157 2.222656 31.609376 29.113281 17.582032 46.09375l-47.863282 57.9375zm0 0" fill="#f97da3" data-original="#F97DA3" class="active-path" data-old_color="#f97da3" style="fill:#FF0000"/><path d="m187.660156 229.839844c-2.03125 0-3.964844-.910156-5.257812-2.480469l-47.867188-57.9375c-8.386718-10.140625-10.453125-24.085937-5.402344-36.386719 4.839844-11.792968 15.140626-19.585937 27.546876-20.847656 11.253906-1.097656 22.820312 2.804688 30.980468 10.566406 8.167969-7.761718 19.734375-11.695312 30.972656-10.566406 12.414063 1.261719 22.714844 9.054688 27.554688 20.847656 5.054688 12.300782 2.988281 26.246094-5.398438 36.386719l-47.867187 57.9375c-1.296875 1.566406-3.230469 2.480469-5.261719 2.480469zm-42.605468-69.113282 42.605468 51.566407 42.605469-51.566407c5.160156-6.253906 6.429687-14.878906 3.296875-22.507812-2.941406-7.15625-8.882812-11.695312-16.308594-12.449219-9.179687-.925781-18.660156 3.402344-23.90625 11.3125-2.535156 3.8125-8.839844 3.8125-11.375 0-5.25-7.910156-14.757812-12.269531-23.914062-11.3125-7.417969.753907-13.359375 5.292969-16.300782 12.449219-3.128906 7.628906-1.863281 16.253906 3.296876 22.507812zm0 0" data-original="#000000" class="" style="fill:#E0F107" data-old_color="#000000"/></g> </svg>
